<svg xmlns="http://www.w3.org/2000/svg" xmlns:xlink="http://www.w3.org/1999/xlink" viewBox="0 0 73.23 71.83"><defs><style>.cls-1,.cls-5{fill:none;}.cls-2{fill:url(#Dégradé_sans_nom_4);}.cls-3{clip-path:url(#clip-path);}.cls-4{fill:#fff;}.cls-5{stroke:#fff;stroke-miterlimit:10;stroke-width:4.16px;}</style><linearGradient id="Dégradé_sans_nom_4" x1="60.35" y1="64.05" x2="3.97" y2="7.67" gradientUnits="userSpaceOnUse"><stop offset="0" stop-color="#525252"/><stop offset="1"/></linearGradient><clipPath id="clip-path"><path id="_Masque_" data-name="&lt;Masque&gt;" class="cls-1" d="M3.94,14.87,27.86,1.06a7.87,7.87,0,0,1,7.88,0L59.66,14.87a7.85,7.85,0,0,1,3.94,6.82V49.31a7.85,7.85,0,0,1-3.94,6.82L35.74,69.94a7.87,7.87,0,0,1-7.88,0L3.94,56.13A7.85,7.85,0,0,1,0,49.31V21.69A7.85,7.85,0,0,1,3.94,14.87Z"/></clipPath></defs><title>Fichier 1</title><g id="Calque_2" data-name="Calque 2"><g id="accueil"><path id="_Tracé_" data-name="&lt;Tracé&gt;" class="cls-2" d="M3.94,14.87,27.86,1.06a7.87,7.87,0,0,1,7.88,0L59.66,14.87a7.85,7.85,0,0,1,3.94,6.82V49.31a7.85,7.85,0,0,1-3.94,6.82L35.74,69.94a7.87,7.87,0,0,1-7.88,0L3.94,56.13A7.85,7.85,0,0,1,0,49.31V21.69A7.85,7.85,0,0,1,3.94,14.87Z"/><g id="_Ecrêter_le_groupe_" data-name="&lt;Ecrêter le groupe&gt;"><g class="cls-3"><path id="_Tracé_2" data-name="&lt;Tracé&gt;" d="M51.86,28.67l-.27,1.51-4.93,1.1s0,10.39-.78,14.28S42.7,49.06,40.3,51s-7-3.25-7-3.25-1.17-4.8-2.46-2S24,48.74,20.25,48a8.29,8.29,0,0,1-5.39-3.44l-1,.85,2.65,3.83L55.39,71.83,73.23,41.05Z"/></g></g><g id="_Groupe_" data-name="&lt;Groupe&gt;"><path id="_Tracé_transparent_" data-name="&lt;Tracé transparent&gt;" class="cls-4" d="M34.32,39.17A11.83,11.83,0,0,1,22.49,50.89a11.39,11.39,0,0,1-8.37-3.47,11.84,11.84,0,0,1,0-16.73,11.38,11.38,0,0,1,8.37-3.46,11.3,11.3,0,0,1,7,2.27v-7a2.42,2.42,0,0,1,4.84,0Zm-4.82.38c0-.14,0-.28,0-.42v-.9a7,7,0,0,0-7-6.19,7,7,0,0,0-7,7,7,7,0,0,0,7,7,6.79,6.79,0,0,0,5-2.07A6.58,6.58,0,0,0,29.5,39.55Z"/><path id="_Tracé_3" data-name="&lt;Tracé&gt;" class="cls-5" d="M32.22,37.59v6a7.14,7.14,0,0,0,7.14,7.14h0a7.14,7.14,0,0,0,7.14-7.14V39.44"/><path id="_Tracé_4" data-name="&lt;Tracé&gt;" class="cls-4" d="M47.25,48.4a9.25,9.25,0,0,0,1.34-4.77v-1h0V32.52h2.27a2,2,0,0,0,1.47-.61,1.94,1.94,0,0,0,.61-1.44A2,2,0,0,0,52.33,29a2,2,0,0,0-1.47-.6H48.59V22.16A2,2,0,0,0,48,20.72a2.1,2.1,0,0,0-2.94,0,1.94,1.94,0,0,0-.61,1.44v6.26H42.07a2,2,0,0,0-1.48.6A2,2,0,0,0,40,30.47a2,2,0,0,0,.61,1.44,2,2,0,0,0,1.48.61h2.35v14A1.94,1.94,0,0,0,45,47.93a2,2,0,0,0,1.47.61A2.32,2.32,0,0,0,47.25,48.4Z"/></g></g></g></svg>